<svg xmlns="http://www.w3.org/2000/svg" xmlns:xlink="http://www.w3.org/1999/xlink" width="500" zoomAndPan="magnify" viewBox="0 0 375 374.999991" height="500" preserveAspectRatio="xMidYMid meet" version="1.0"><defs><clipPath id="id1"><path d="M 81.339844 88.703125 L 306.339844 88.703125 L 306.339844 273.953125 L 81.339844 273.953125 Z M 81.339844 88.703125 " clip-rule="nonzero"/></clipPath></defs><path fill="rgb(100%, 74.119568%, 0%)" d="M 37.5 24.820312 L 37.5 337.570312 L 350.25 337.570312 L 350.25 24.820312 L 37.5 24.820312 M 340.289062 327.609375 L 47.253906 327.609375 L 47.253906 34.574219 L 340.289062 34.574219 L 340.289062 327.609375 " fill-opacity="1" fill-rule="nonzero"/><g clip-path="url(#id1)"><path fill="rgb(100%, 74.119568%, 0%)" d="M 81.582031 221.027344 L 306.101562 221.027344 L 306.101562 194.5625 L 81.582031 194.5625 Z M 81.582031 273.953125 L 306.101562 273.953125 L 306.101562 247.492188 L 81.582031 247.492188 Z M 81.582031 168.097656 L 306.101562 168.097656 L 306.101562 141.632812 L 81.582031 141.632812 Z M 81.582031 88.703125 L 81.582031 115.167969 L 306.101562 115.167969 L 306.101562 88.703125 Z M 81.582031 88.703125 " fill-opacity="1" fill-rule="nonzero"/></g></svg>